<mxfile host="Electron" modified="2024-06-04T23:00:38.499Z" agent="Mozilla/5.0 (Windows NT 10.0; Win64; x64) AppleWebKit/537.36 (KHTML, like Gecko) draw.io/24.4.8 Chrome/124.0.6367.207 Electron/30.0.6 Safari/537.36" etag="6zngO6vIX4Kj1hGdBRC2" version="24.4.8" type="device">
  <diagram id="6a731a19-8d31-9384-78a2-239565b7b9f0" name="Page-1">
    <mxGraphModel dx="1490" dy="1022" grid="1" gridSize="10" guides="1" tooltips="1" connect="1" arrows="1" fold="1" page="1" pageScale="1" pageWidth="1169" pageHeight="827" background="none" math="0" shadow="0">
      <root>
        <mxCell id="0" />
        <mxCell id="1" parent="0" />
        <mxCell id="_-qXXzbysMtGRlGWK6wz-148" value="&lt;h1&gt;Architect IAssistant Project&lt;/h1&gt;" style="text;html=1;align=center;verticalAlign=middle;resizable=0;points=[];autosize=1;strokeColor=none;fillColor=none;" vertex="1" parent="1">
          <mxGeometry width="340" height="70" as="geometry" />
        </mxCell>
        <mxCell id="_-qXXzbysMtGRlGWK6wz-247" value="" style="group" vertex="1" connectable="0" parent="1">
          <mxGeometry x="880" y="80" width="250" height="50" as="geometry" />
        </mxCell>
        <mxCell id="_-qXXzbysMtGRlGWK6wz-245" value="" style="ellipse;whiteSpace=wrap;html=1;aspect=fixed;rounded=1;dashed=1;strokeColor=#82b366;align=center;verticalAlign=middle;fontFamily=Helvetica;fontSize=12;fillColor=#d5e8d4;" vertex="1" parent="_-qXXzbysMtGRlGWK6wz-247">
          <mxGeometry y="5" width="40" height="40" as="geometry" />
        </mxCell>
        <mxCell id="_-qXXzbysMtGRlGWK6wz-246" value="&lt;h1&gt;&lt;font color=&quot;#0b7845&quot;&gt;&lt;span style=&quot;font-size: 15px;&quot;&gt;Ponto de Conexão&lt;/span&gt;&lt;/font&gt;&lt;/h1&gt;" style="rounded=1;whiteSpace=wrap;html=1;strokeColor=default;dashed=1;opacity=70;" vertex="1" parent="_-qXXzbysMtGRlGWK6wz-247">
          <mxGeometry x="60" width="190" height="50" as="geometry" />
        </mxCell>
        <mxCell id="_-qXXzbysMtGRlGWK6wz-250" value="" style="group" vertex="1" connectable="0" parent="1">
          <mxGeometry x="10" y="116" width="445" height="194" as="geometry" />
        </mxCell>
        <mxCell id="_-qXXzbysMtGRlGWK6wz-218" value="" style="rounded=1;whiteSpace=wrap;html=1;strokeColor=#321DF0;dashed=1;" vertex="1" parent="_-qXXzbysMtGRlGWK6wz-250">
          <mxGeometry width="420" height="180" as="geometry" />
        </mxCell>
        <mxCell id="_-qXXzbysMtGRlGWK6wz-209" style="rounded=0;orthogonalLoop=1;jettySize=auto;html=1;exitX=1;exitY=0.71;exitDx=0;exitDy=0;exitPerimeter=0;startArrow=oval;startFill=1;fillColor=#dae8fc;strokeColor=#6c8ebf;" edge="1" parent="_-qXXzbysMtGRlGWK6wz-250" source="_-qXXzbysMtGRlGWK6wz-210" target="_-qXXzbysMtGRlGWK6wz-213">
          <mxGeometry relative="1" as="geometry" />
        </mxCell>
        <mxCell id="_-qXXzbysMtGRlGWK6wz-210" value="User" style="points=[[0.35,0,0],[0.98,0.51,0],[1,0.71,0],[0.67,1,0],[0,0.795,0],[0,0.65,0]];verticalLabelPosition=bottom;sketch=0;html=1;verticalAlign=top;aspect=fixed;align=center;pointerEvents=1;shape=mxgraph.cisco19.user;fillColor=#005073;strokeColor=none;" vertex="1" parent="_-qXXzbysMtGRlGWK6wz-250">
          <mxGeometry x="29.5" y="37.75" width="50" height="50" as="geometry" />
        </mxCell>
        <mxCell id="_-qXXzbysMtGRlGWK6wz-211" value="" style="group;strokeColor=default;dashed=1;opacity=30;" vertex="1" connectable="0" parent="_-qXXzbysMtGRlGWK6wz-250">
          <mxGeometry x="149.5" y="45" width="100" height="60" as="geometry" />
        </mxCell>
        <mxCell id="_-qXXzbysMtGRlGWK6wz-212" value="" style="group" vertex="1" connectable="0" parent="_-qXXzbysMtGRlGWK6wz-211">
          <mxGeometry width="100" height="60" as="geometry" />
        </mxCell>
        <mxCell id="_-qXXzbysMtGRlGWK6wz-213" value="" style="shape=mxgraph.cisco.computers_and_peripherals.laptop;html=1;pointerEvents=1;dashed=0;fillColor=#036897;strokeColor=#ffffff;strokeWidth=2;verticalLabelPosition=bottom;verticalAlign=top;align=center;outlineConnect=0;" vertex="1" parent="_-qXXzbysMtGRlGWK6wz-212">
          <mxGeometry width="100" height="60" as="geometry" />
        </mxCell>
        <mxCell id="_-qXXzbysMtGRlGWK6wz-214" value="" style="image;aspect=fixed;perimeter=ellipsePerimeter;html=1;align=center;shadow=0;dashed=0;spacingTop=3;image=img/lib/active_directory/home_page.svg;" vertex="1" parent="_-qXXzbysMtGRlGWK6wz-212">
          <mxGeometry x="50" y="4" width="28.89" height="26" as="geometry" />
        </mxCell>
        <mxCell id="_-qXXzbysMtGRlGWK6wz-215" value="Browser" style="sketch=0;pointerEvents=1;shadow=0;dashed=0;html=1;strokeColor=none;fillColor=#434445;aspect=fixed;labelPosition=center;verticalLabelPosition=bottom;verticalAlign=top;align=center;outlineConnect=0;shape=mxgraph.vvd.web_browser;" vertex="1" parent="_-qXXzbysMtGRlGWK6wz-250">
          <mxGeometry x="320" y="45" width="50" height="35.5" as="geometry" />
        </mxCell>
        <mxCell id="_-qXXzbysMtGRlGWK6wz-216" style="rounded=0;orthogonalLoop=1;jettySize=auto;html=1;exitX=0.992;exitY=0.261;exitDx=0;exitDy=0;exitPerimeter=0;strokeColor=#6c8ebf;align=center;verticalAlign=middle;fontFamily=Helvetica;fontSize=11;fontColor=default;labelBackgroundColor=default;startArrow=oval;startFill=1;endArrow=classic;fillColor=#dae8fc;" edge="1" parent="_-qXXzbysMtGRlGWK6wz-250" target="_-qXXzbysMtGRlGWK6wz-215" source="_-qXXzbysMtGRlGWK6wz-213">
          <mxGeometry relative="1" as="geometry">
            <mxPoint x="280" y="62.75" as="sourcePoint" />
          </mxGeometry>
        </mxCell>
        <mxCell id="_-qXXzbysMtGRlGWK6wz-219" value="&lt;h1&gt;&lt;font style=&quot;font-size: 15px;&quot;&gt;Ambiente do Usuário&lt;/font&gt;&lt;/h1&gt;" style="text;html=1;align=center;verticalAlign=middle;resizable=0;points=[];autosize=1;strokeColor=none;fillColor=none;" vertex="1" parent="_-qXXzbysMtGRlGWK6wz-250">
          <mxGeometry x="245" y="110" width="170" height="70" as="geometry" />
        </mxCell>
        <mxCell id="_-qXXzbysMtGRlGWK6wz-254" value="" style="ellipse;whiteSpace=wrap;html=1;aspect=fixed;rounded=1;dashed=1;strokeColor=#82b366;align=center;verticalAlign=middle;fontFamily=Helvetica;fontSize=12;fillColor=#d5e8d4;" vertex="1" parent="_-qXXzbysMtGRlGWK6wz-250">
          <mxGeometry x="405" y="154" width="40" height="40" as="geometry" />
        </mxCell>
        <mxCell id="_-qXXzbysMtGRlGWK6wz-251" value="" style="group" vertex="1" connectable="0" parent="1">
          <mxGeometry x="20" y="383.5" width="370" height="437" as="geometry" />
        </mxCell>
        <mxCell id="_-qXXzbysMtGRlGWK6wz-221" value="" style="rounded=1;whiteSpace=wrap;html=1;strokeColor=#321DF0;dashed=1;" vertex="1" parent="_-qXXzbysMtGRlGWK6wz-251">
          <mxGeometry y="27" width="370" height="410" as="geometry" />
        </mxCell>
        <mxCell id="_-qXXzbysMtGRlGWK6wz-228" value="Cloud Public" style="outlineConnect=0;dashed=0;verticalLabelPosition=bottom;verticalAlign=top;align=center;html=1;shape=mxgraph.aws3.cloud_2;fillColor=#F58534;gradientColor=none;rounded=1;strokeColor=#321DF0;fontFamily=Helvetica;fontSize=12;fontColor=default;" vertex="1" parent="_-qXXzbysMtGRlGWK6wz-251">
          <mxGeometry x="315" y="323" width="35" height="35" as="geometry" />
        </mxCell>
        <mxCell id="_-qXXzbysMtGRlGWK6wz-231" value="&lt;h1&gt;&lt;font color=&quot;#0b7845&quot;&gt;&lt;span style=&quot;font-size: 15px;&quot;&gt;Cluster Layout&lt;/span&gt;&lt;/font&gt;&lt;/h1&gt;" style="rounded=1;whiteSpace=wrap;html=1;strokeColor=default;dashed=1;opacity=50;" vertex="1" parent="_-qXXzbysMtGRlGWK6wz-251">
          <mxGeometry x="110" y="373" width="190" height="50" as="geometry" />
        </mxCell>
        <mxCell id="_-qXXzbysMtGRlGWK6wz-232" value="ECR" style="outlineConnect=0;dashed=0;verticalLabelPosition=bottom;verticalAlign=top;align=center;html=1;shape=mxgraph.aws3.ecr;fillColor=#F58534;gradientColor=none;rounded=1;strokeColor=#321DF0;fontFamily=Helvetica;fontSize=12;fontColor=default;" vertex="1" parent="_-qXXzbysMtGRlGWK6wz-251">
          <mxGeometry x="30" y="333" width="69" height="72" as="geometry" />
        </mxCell>
        <mxCell id="_-qXXzbysMtGRlGWK6wz-233" value="Fargate" style="sketch=0;points=[[0,0,0],[0.25,0,0],[0.5,0,0],[0.75,0,0],[1,0,0],[0,1,0],[0.25,1,0],[0.5,1,0],[0.75,1,0],[1,1,0],[0,0.25,0],[0,0.5,0],[0,0.75,0],[1,0.25,0],[1,0.5,0],[1,0.75,0]];outlineConnect=0;fontColor=#232F3E;fillColor=#ED7100;strokeColor=#ffffff;dashed=0;verticalLabelPosition=bottom;verticalAlign=top;align=center;html=1;fontSize=12;fontStyle=0;aspect=fixed;shape=mxgraph.aws4.resourceIcon;resIcon=mxgraph.aws4.fargate;rounded=1;fontFamily=Helvetica;" vertex="1" parent="_-qXXzbysMtGRlGWK6wz-251">
          <mxGeometry x="99" y="55.5" width="78" height="78" as="geometry" />
        </mxCell>
        <mxCell id="_-qXXzbysMtGRlGWK6wz-234" value="ECS" style="outlineConnect=0;dashed=0;verticalLabelPosition=bottom;verticalAlign=top;align=center;html=1;shape=mxgraph.aws3.ecs;fillColor=#F58534;gradientColor=none;rounded=1;strokeColor=#321DF0;fontFamily=Helvetica;fontSize=12;fontColor=default;" vertex="1" parent="_-qXXzbysMtGRlGWK6wz-251">
          <mxGeometry x="30" y="173" width="72" height="67.5" as="geometry" />
        </mxCell>
        <mxCell id="_-qXXzbysMtGRlGWK6wz-235" style="rounded=0;orthogonalLoop=1;jettySize=auto;html=1;entryX=0;entryY=0.9;entryDx=0;entryDy=0;entryPerimeter=0;strokeColor=#6c8ebf;align=center;verticalAlign=middle;fontFamily=Helvetica;fontSize=12;fontColor=default;labelBackgroundColor=default;startArrow=classic;startFill=1;endArrow=classic;fillColor=#dae8fc;" edge="1" parent="_-qXXzbysMtGRlGWK6wz-251" source="_-qXXzbysMtGRlGWK6wz-232" target="_-qXXzbysMtGRlGWK6wz-234">
          <mxGeometry relative="1" as="geometry" />
        </mxCell>
        <mxCell id="_-qXXzbysMtGRlGWK6wz-236" style="rounded=0;orthogonalLoop=1;jettySize=auto;html=1;exitX=0.5;exitY=0.095;exitDx=0;exitDy=0;exitPerimeter=0;entryX=0;entryY=1;entryDx=0;entryDy=0;entryPerimeter=0;strokeColor=#6c8ebf;align=center;verticalAlign=middle;fontFamily=Helvetica;fontSize=12;fontColor=default;labelBackgroundColor=default;startArrow=classic;startFill=1;endArrow=classic;fillColor=#dae8fc;" edge="1" parent="_-qXXzbysMtGRlGWK6wz-251" source="_-qXXzbysMtGRlGWK6wz-234" target="_-qXXzbysMtGRlGWK6wz-233">
          <mxGeometry relative="1" as="geometry" />
        </mxCell>
        <mxCell id="_-qXXzbysMtGRlGWK6wz-238" value="Load Balance" style="outlineConnect=0;dashed=0;verticalLabelPosition=bottom;verticalAlign=top;align=center;html=1;shape=mxgraph.aws3.application_load_balancer;fillColor=#F58534;gradientColor=none;rounded=1;strokeColor=#321DF0;fontFamily=Helvetica;fontSize=12;fontColor=default;" vertex="1" parent="_-qXXzbysMtGRlGWK6wz-251">
          <mxGeometry x="280" y="40" width="69" height="72" as="geometry" />
        </mxCell>
        <mxCell id="_-qXXzbysMtGRlGWK6wz-239" style="rounded=0;orthogonalLoop=1;jettySize=auto;html=1;exitX=1;exitY=0.5;exitDx=0;exitDy=0;exitPerimeter=0;entryX=0;entryY=0.5;entryDx=0;entryDy=0;entryPerimeter=0;strokeColor=#6c8ebf;align=center;verticalAlign=middle;fontFamily=Helvetica;fontSize=12;fontColor=default;labelBackgroundColor=default;startArrow=classic;startFill=1;endArrow=classic;fillColor=#dae8fc;" edge="1" parent="_-qXXzbysMtGRlGWK6wz-251" source="_-qXXzbysMtGRlGWK6wz-233" target="_-qXXzbysMtGRlGWK6wz-238">
          <mxGeometry relative="1" as="geometry" />
        </mxCell>
        <mxCell id="_-qXXzbysMtGRlGWK6wz-249" value="" style="ellipse;whiteSpace=wrap;html=1;aspect=fixed;rounded=1;dashed=1;strokeColor=#82b366;align=center;verticalAlign=middle;fontFamily=Helvetica;fontSize=12;fillColor=#d5e8d4;" vertex="1" parent="_-qXXzbysMtGRlGWK6wz-251">
          <mxGeometry x="300" width="40" height="40" as="geometry" />
        </mxCell>
        <mxCell id="_-qXXzbysMtGRlGWK6wz-252" value="" style="group" vertex="1" connectable="0" parent="1">
          <mxGeometry x="410" y="410.5" width="350" height="410" as="geometry" />
        </mxCell>
        <mxCell id="_-qXXzbysMtGRlGWK6wz-194" value="" style="rounded=1;whiteSpace=wrap;html=1;strokeColor=#321DF0;dashed=1;" vertex="1" parent="_-qXXzbysMtGRlGWK6wz-252">
          <mxGeometry width="350" height="410" as="geometry" />
        </mxCell>
        <mxCell id="_-qXXzbysMtGRlGWK6wz-199" value="API Gateway" style="outlineConnect=0;dashed=0;verticalLabelPosition=bottom;verticalAlign=top;align=center;html=1;shape=mxgraph.aws3.api_gateway;fillColor=#D9A741;gradientColor=none;rounded=1;strokeColor=#321DF0;fontFamily=Helvetica;fontSize=12;fontColor=default;" vertex="1" parent="_-qXXzbysMtGRlGWK6wz-252">
          <mxGeometry x="145" y="170" width="50" height="63" as="geometry" />
        </mxCell>
        <mxCell id="_-qXXzbysMtGRlGWK6wz-186" value="" style="edgeStyle=orthogonalEdgeStyle;curved=1;rounded=0;orthogonalLoop=1;jettySize=auto;html=1;strokeColor=#6c8ebf;align=center;verticalAlign=middle;fontFamily=Helvetica;fontSize=12;fontColor=default;labelBackgroundColor=default;startArrow=classic;startFill=1;endArrow=classic;fillColor=#dae8fc;" edge="1" source="_-qXXzbysMtGRlGWK6wz-187" target="_-qXXzbysMtGRlGWK6wz-188" parent="_-qXXzbysMtGRlGWK6wz-252">
          <mxGeometry relative="1" as="geometry" />
        </mxCell>
        <mxCell id="_-qXXzbysMtGRlGWK6wz-193" style="edgeStyle=orthogonalEdgeStyle;curved=1;rounded=0;orthogonalLoop=1;jettySize=auto;html=1;strokeColor=#6c8ebf;align=center;verticalAlign=middle;fontFamily=Helvetica;fontSize=12;fontColor=default;labelBackgroundColor=default;startArrow=oval;startFill=1;endArrow=classic;fillColor=#dae8fc;" edge="1" parent="_-qXXzbysMtGRlGWK6wz-252" source="_-qXXzbysMtGRlGWK6wz-187" target="_-qXXzbysMtGRlGWK6wz-199">
          <mxGeometry relative="1" as="geometry">
            <mxPoint x="168.64999999999986" y="212.25400000000013" as="targetPoint" />
          </mxGeometry>
        </mxCell>
        <mxCell id="_-qXXzbysMtGRlGWK6wz-187" value="Service Analyze" style="image;sketch=0;aspect=fixed;html=1;points=[];align=center;fontSize=12;image=img/lib/mscae/Analysis_Services.svg;fontFamily=Helvetica;fontColor=default;labelBackgroundColor=default;" vertex="1" parent="_-qXXzbysMtGRlGWK6wz-252">
          <mxGeometry x="250" y="275.25" width="50" height="39" as="geometry" />
        </mxCell>
        <mxCell id="_-qXXzbysMtGRlGWK6wz-192" style="edgeStyle=orthogonalEdgeStyle;curved=1;rounded=0;orthogonalLoop=1;jettySize=auto;html=1;strokeColor=#6c8ebf;align=center;verticalAlign=middle;fontFamily=Helvetica;fontSize=12;fontColor=default;labelBackgroundColor=default;startArrow=oval;startFill=1;endArrow=classic;fillColor=#dae8fc;entryX=0.5;entryY=1;entryDx=0;entryDy=0;entryPerimeter=0;" edge="1" parent="_-qXXzbysMtGRlGWK6wz-252" source="_-qXXzbysMtGRlGWK6wz-188" target="_-qXXzbysMtGRlGWK6wz-199">
          <mxGeometry relative="1" as="geometry">
            <mxPoint x="164.99999999999977" y="205" as="targetPoint" />
          </mxGeometry>
        </mxCell>
        <mxCell id="_-qXXzbysMtGRlGWK6wz-188" value="Dashboard Service" style="image;sketch=0;aspect=fixed;html=1;points=[];align=center;fontSize=12;image=img/lib/mscae/Analysis_Services.svg;fontFamily=Helvetica;fontColor=default;labelBackgroundColor=default;" vertex="1" parent="_-qXXzbysMtGRlGWK6wz-252">
          <mxGeometry x="50" y="275.25" width="50" height="39" as="geometry" />
        </mxCell>
        <mxCell id="_-qXXzbysMtGRlGWK6wz-197" value="Cloud Public" style="outlineConnect=0;dashed=0;verticalLabelPosition=bottom;verticalAlign=top;align=center;html=1;shape=mxgraph.aws3.cloud_2;fillColor=#F58534;gradientColor=none;rounded=1;strokeColor=#321DF0;fontFamily=Helvetica;fontSize=12;fontColor=default;" vertex="1" parent="_-qXXzbysMtGRlGWK6wz-252">
          <mxGeometry x="270" y="40" width="35" height="35" as="geometry" />
        </mxCell>
        <mxCell id="_-qXXzbysMtGRlGWK6wz-201" value="Load Balance" style="outlineConnect=0;dashed=0;verticalLabelPosition=bottom;verticalAlign=top;align=center;html=1;shape=mxgraph.aws3.application_load_balancer;fillColor=#F58534;gradientColor=none;rounded=1;strokeColor=#321DF0;fontFamily=Helvetica;fontSize=12;fontColor=default;" vertex="1" parent="_-qXXzbysMtGRlGWK6wz-252">
          <mxGeometry x="135.5" y="40" width="69" height="72" as="geometry" />
        </mxCell>
        <mxCell id="_-qXXzbysMtGRlGWK6wz-202" style="edgeStyle=orthogonalEdgeStyle;curved=1;rounded=0;orthogonalLoop=1;jettySize=auto;html=1;entryX=0.5;entryY=1;entryDx=0;entryDy=0;entryPerimeter=0;strokeColor=#6c8ebf;align=center;verticalAlign=middle;fontFamily=Helvetica;fontSize=12;fontColor=default;labelBackgroundColor=default;startArrow=classic;startFill=1;endArrow=classic;fillColor=#dae8fc;" edge="1" parent="_-qXXzbysMtGRlGWK6wz-252" source="_-qXXzbysMtGRlGWK6wz-199" target="_-qXXzbysMtGRlGWK6wz-201">
          <mxGeometry relative="1" as="geometry" />
        </mxCell>
        <mxCell id="_-qXXzbysMtGRlGWK6wz-220" value="&lt;h1&gt;&lt;font color=&quot;#0b7845&quot;&gt;&lt;span style=&quot;font-size: 15px;&quot;&gt;Cloud Computer Layout&lt;/span&gt;&lt;/font&gt;&lt;/h1&gt;" style="rounded=1;whiteSpace=wrap;html=1;strokeColor=default;dashed=1;opacity=50;" vertex="1" parent="_-qXXzbysMtGRlGWK6wz-252">
          <mxGeometry x="75" y="346" width="190" height="50" as="geometry" />
        </mxCell>
        <mxCell id="_-qXXzbysMtGRlGWK6wz-244" value="" style="ellipse;whiteSpace=wrap;html=1;aspect=fixed;rounded=1;dashed=1;strokeColor=#82b366;align=center;verticalAlign=middle;fontFamily=Helvetica;fontSize=12;fillColor=#d5e8d4;" vertex="1" parent="_-qXXzbysMtGRlGWK6wz-252">
          <mxGeometry x="150" width="40" height="40" as="geometry" />
        </mxCell>
        <mxCell id="_-qXXzbysMtGRlGWK6wz-253" value="" style="group" vertex="1" connectable="0" parent="1">
          <mxGeometry x="810" y="414" width="340" height="360.5" as="geometry" />
        </mxCell>
        <mxCell id="_-qXXzbysMtGRlGWK6wz-242" value="" style="group" vertex="1" connectable="0" parent="_-qXXzbysMtGRlGWK6wz-253">
          <mxGeometry y="30.5" width="340" height="330" as="geometry" />
        </mxCell>
        <mxCell id="_-qXXzbysMtGRlGWK6wz-152" value="" style="rounded=1;whiteSpace=wrap;html=1;strokeColor=#321DF0;dashed=1;" vertex="1" parent="_-qXXzbysMtGRlGWK6wz-242">
          <mxGeometry width="340" height="330" as="geometry" />
        </mxCell>
        <mxCell id="_-qXXzbysMtGRlGWK6wz-177" value="" style="edgeStyle=orthogonalEdgeStyle;curved=1;rounded=0;orthogonalLoop=1;jettySize=auto;html=1;strokeColor=#6c8ebf;align=center;verticalAlign=middle;fontFamily=Helvetica;fontSize=12;fontColor=default;labelBackgroundColor=default;startArrow=classic;startFill=1;endArrow=classic;fillColor=#dae8fc;" edge="1" parent="_-qXXzbysMtGRlGWK6wz-242" source="_-qXXzbysMtGRlGWK6wz-172" target="_-qXXzbysMtGRlGWK6wz-173">
          <mxGeometry relative="1" as="geometry" />
        </mxCell>
        <mxCell id="_-qXXzbysMtGRlGWK6wz-172" value="Service Analyze" style="image;sketch=0;aspect=fixed;html=1;points=[];align=center;fontSize=12;image=img/lib/mscae/Analysis_Services.svg;fontFamily=Helvetica;fontColor=default;labelBackgroundColor=default;" vertex="1" parent="_-qXXzbysMtGRlGWK6wz-242">
          <mxGeometry x="220" y="37" width="50" height="39" as="geometry" />
        </mxCell>
        <mxCell id="_-qXXzbysMtGRlGWK6wz-179" value="" style="edgeStyle=orthogonalEdgeStyle;curved=1;rounded=0;orthogonalLoop=1;jettySize=auto;html=1;strokeColor=#6c8ebf;align=center;verticalAlign=middle;fontFamily=Helvetica;fontSize=12;fontColor=default;labelBackgroundColor=default;startArrow=oval;startFill=1;endArrow=classic;fillColor=#dae8fc;" edge="1" parent="_-qXXzbysMtGRlGWK6wz-242" source="_-qXXzbysMtGRlGWK6wz-173" target="_-qXXzbysMtGRlGWK6wz-178">
          <mxGeometry relative="1" as="geometry" />
        </mxCell>
        <mxCell id="_-qXXzbysMtGRlGWK6wz-173" value="Dashboard Service" style="image;sketch=0;aspect=fixed;html=1;points=[];align=center;fontSize=12;image=img/lib/mscae/Analysis_Services.svg;fontFamily=Helvetica;fontColor=default;labelBackgroundColor=default;" vertex="1" parent="_-qXXzbysMtGRlGWK6wz-242">
          <mxGeometry x="220" y="190" width="50" height="39" as="geometry" />
        </mxCell>
        <mxCell id="_-qXXzbysMtGRlGWK6wz-176" value="" style="rounded=0;orthogonalLoop=1;jettySize=auto;html=1;strokeColor=#6c8ebf;align=center;verticalAlign=middle;fontFamily=Helvetica;fontSize=12;fontColor=default;labelBackgroundColor=default;startArrow=classic;startFill=1;endArrow=classic;fillColor=#dae8fc;" edge="1" parent="_-qXXzbysMtGRlGWK6wz-242" source="_-qXXzbysMtGRlGWK6wz-174" target="_-qXXzbysMtGRlGWK6wz-172">
          <mxGeometry relative="1" as="geometry" />
        </mxCell>
        <mxCell id="_-qXXzbysMtGRlGWK6wz-174" value="Rest API Service" style="image;sketch=0;aspect=fixed;html=1;points=[];align=center;fontSize=12;image=img/lib/mscae/Analysis_Services.svg;fontFamily=Helvetica;fontColor=default;labelBackgroundColor=default;" vertex="1" parent="_-qXXzbysMtGRlGWK6wz-242">
          <mxGeometry x="37.610000000000014" y="10" width="50" height="39" as="geometry" />
        </mxCell>
        <mxCell id="_-qXXzbysMtGRlGWK6wz-181" style="edgeStyle=orthogonalEdgeStyle;curved=1;rounded=0;orthogonalLoop=1;jettySize=auto;html=1;strokeColor=#6c8ebf;align=center;verticalAlign=middle;fontFamily=Helvetica;fontSize=12;fontColor=default;labelBackgroundColor=default;startArrow=oval;startFill=1;endArrow=classic;fillColor=#dae8fc;" edge="1" parent="_-qXXzbysMtGRlGWK6wz-242" source="_-qXXzbysMtGRlGWK6wz-178" target="_-qXXzbysMtGRlGWK6wz-174">
          <mxGeometry relative="1" as="geometry">
            <mxPoint x="70" y="80" as="targetPoint" />
          </mxGeometry>
        </mxCell>
        <mxCell id="_-qXXzbysMtGRlGWK6wz-178" value="" style="sketch=0;outlineConnect=0;fontColor=#232F3E;gradientColor=none;fillColor=#8C4FFF;strokeColor=none;dashed=0;verticalLabelPosition=bottom;verticalAlign=top;align=center;html=1;fontSize=12;fontStyle=0;aspect=fixed;pointerEvents=1;shape=mxgraph.aws4.opensearch_dashboards;rounded=1;fontFamily=Helvetica;" vertex="1" parent="_-qXXzbysMtGRlGWK6wz-242">
          <mxGeometry x="30.220000000000027" y="185" width="64.78" height="49" as="geometry" />
        </mxCell>
        <mxCell id="_-qXXzbysMtGRlGWK6wz-183" value="&lt;h1&gt;&lt;font style=&quot;font-size: 15px;&quot; color=&quot;#0b7845&quot;&gt;Local Host Layout&lt;/font&gt;&lt;/h1&gt;" style="rounded=1;whiteSpace=wrap;html=1;strokeColor=none;dashed=1;" vertex="1" parent="_-qXXzbysMtGRlGWK6wz-242">
          <mxGeometry x="60" y="270" width="190" height="50" as="geometry" />
        </mxCell>
        <mxCell id="_-qXXzbysMtGRlGWK6wz-240" value="" style="image;sketch=0;aspect=fixed;html=1;points=[];align=center;fontSize=12;image=img/lib/mscae/Docker.svg;rounded=1;dashed=1;strokeColor=#321DF0;verticalAlign=middle;fontFamily=Helvetica;fontColor=default;fillColor=default;" vertex="1" parent="_-qXXzbysMtGRlGWK6wz-242">
          <mxGeometry x="270" y="274.5" width="50" height="41" as="geometry" />
        </mxCell>
        <mxCell id="_-qXXzbysMtGRlGWK6wz-248" value="" style="ellipse;whiteSpace=wrap;html=1;aspect=fixed;rounded=1;dashed=1;strokeColor=#82b366;align=center;verticalAlign=middle;fontFamily=Helvetica;fontSize=12;fillColor=#d5e8d4;" vertex="1" parent="_-qXXzbysMtGRlGWK6wz-253">
          <mxGeometry x="30" width="40" height="40" as="geometry" />
        </mxCell>
        <mxCell id="_-qXXzbysMtGRlGWK6wz-256" style="edgeStyle=none;rounded=0;orthogonalLoop=1;jettySize=auto;html=1;exitX=0.5;exitY=1;exitDx=0;exitDy=0;entryX=1;entryY=0;entryDx=0;entryDy=0;strokeColor=#6c8ebf;align=center;verticalAlign=middle;fontFamily=Helvetica;fontSize=12;fontColor=default;labelBackgroundColor=default;startArrow=classic;startFill=1;endArrow=classic;fillColor=#dae8fc;" edge="1" parent="1" source="_-qXXzbysMtGRlGWK6wz-254" target="_-qXXzbysMtGRlGWK6wz-249">
          <mxGeometry relative="1" as="geometry" />
        </mxCell>
        <mxCell id="_-qXXzbysMtGRlGWK6wz-257" style="edgeStyle=none;rounded=0;orthogonalLoop=1;jettySize=auto;html=1;exitX=1;exitY=1;exitDx=0;exitDy=0;entryX=0;entryY=0;entryDx=0;entryDy=0;strokeColor=#6c8ebf;align=center;verticalAlign=middle;fontFamily=Helvetica;fontSize=12;fontColor=default;labelBackgroundColor=default;startArrow=classic;startFill=1;endArrow=classic;fillColor=#dae8fc;" edge="1" parent="1" source="_-qXXzbysMtGRlGWK6wz-254" target="_-qXXzbysMtGRlGWK6wz-244">
          <mxGeometry relative="1" as="geometry" />
        </mxCell>
        <mxCell id="_-qXXzbysMtGRlGWK6wz-258" style="edgeStyle=none;rounded=0;orthogonalLoop=1;jettySize=auto;html=1;exitX=1;exitY=0.5;exitDx=0;exitDy=0;entryX=0;entryY=0;entryDx=0;entryDy=0;strokeColor=#6c8ebf;align=center;verticalAlign=middle;fontFamily=Helvetica;fontSize=12;fontColor=default;labelBackgroundColor=default;startArrow=classic;startFill=1;endArrow=classic;fillColor=#dae8fc;" edge="1" parent="1" source="_-qXXzbysMtGRlGWK6wz-254" target="_-qXXzbysMtGRlGWK6wz-248">
          <mxGeometry relative="1" as="geometry" />
        </mxCell>
        <mxCell id="_-qXXzbysMtGRlGWK6wz-260" value="&lt;h1&gt;&lt;font color=&quot;#0b7845&quot;&gt;&lt;span style=&quot;font-size: 15px;&quot;&gt;Usuário pode se conectar com qualquer um ambiente externo&lt;/span&gt;&lt;/font&gt;&lt;/h1&gt;" style="rounded=1;whiteSpace=wrap;html=1;strokeColor=default;dashed=1;opacity=70;" vertex="1" parent="1">
          <mxGeometry x="440" y="230" width="490" height="50" as="geometry" />
        </mxCell>
      </root>
    </mxGraphModel>
  </diagram>
</mxfile>
